<?xml version="1.0" encoding="utf-8"?>
<!-- Generator: Adobe Illustrator 19.0.0, SVG Export Plug-In . SVG Version: 6.00 Build 0)  -->
<svg version="1.1" baseProfile="basic" id="Слой_1"
	 xmlns="http://www.w3.org/2000/svg" xmlns:xlink="http://www.w3.org/1999/xlink" x="0px" y="0px" viewBox="0 0 269.3 382.7"
	 xml:space="preserve">
<style type="text/css">
	.st0{fill:#FFFFFF;}
</style>
<polygon id="XMLID_34_" class="st0" points="95,324.2 93.6,326.8 93.6,326.8 83.4,346.4 86.1,346.4 95,329.4 104,346.4 106.7,346.4 
	96.4,326.7 "/>
<path id="XMLID_33_" class="st0" d="M124.6,332.6c0-3.3-1.4-5.6-4.1-6.9c-1.4-0.7-2.8-1-4.1-1h-5.5h-1.5v21.7h2.3v-19.5h4.8
	c1.1,0,2.1,0.2,3.1,0.7c1.9,0.9,2.9,2.6,2.9,5s-1,4-2.9,5c-1,0.5-2.1,0.7-3.1,0.7h-3.9l2.2,2.2l6.1,5.9h3.3l-6.1-5.9
	c1.2-0.1,2.5-0.7,3.7-1.5C123.6,337.4,124.6,335.4,124.6,332.6z"/>
<polygon id="XMLID_32_" class="st0" points="128,326.9 135.1,326.9 135.1,346.3 137.4,346.3 137.4,326.9 144.5,326.9 144.5,324.6 
	128,324.6 "/>
<polygon id="XMLID_31_" class="st0" points="148.9,346.3 165.7,346.3 165.7,344 151.2,344 151.2,326.9 165.7,326.9 165.7,324.6 
	148.9,324.6 "/>
<rect id="XMLID_30_" x="152.9" y="338.1" class="st0" width="12.7" height="2.3"/>
<path id="XMLID_29_" class="st0" d="M180.8,331.6c-0.9-0.4-1.9-0.5-2.8-0.5c-0.6,0-1.2-0.2-1.6-0.7c-0.4-0.4-0.7-1-0.7-1.6
	c0-0.6,0.2-1.2,0.7-1.6c0.4-0.4,1-0.7,1.6-0.7c0.6,0,1.2,0.2,1.6,0.7c0.4,0.4,0.6,0.9,0.6,1.3l2.7,0c-1-2.8-2.7-4.2-5-4.2
	c-1.2,0-2.3,0.4-3.2,1.3c-0.9,0.9-1.3,2-1.3,3.2c0,1.2,0.4,2.3,1.3,3.2c0,0,0.1,0.1,0.2,0.2c0.8,0.7,1.8,1.1,3,1.1
	c1.6,0,2.9,0.6,4,1.7c1.1,1.1,1.7,2.4,1.7,4c0,1.5-0.6,2.8-1.7,3.9c-1.1,1.1-2.5,1.7-4,1.7c-1.5,0-2.9-0.5-4-1.6
	c-1.1-1.1-1.7-2.5-1.7-4.2h-2.2c0,2.4,0.8,4.3,2.4,5.8c1.5,1.5,3.4,2.3,5.6,2.3c2.2,0,4.1-0.8,5.6-2.3c1.6-1.5,2.3-3.4,2.3-5.5
	c0-1.6-0.5-3.1-1.4-4.5C183.6,333.1,182.4,332.1,180.8,331.6z"/>
<polygon id="XMLID_28_" class="st0" points="147.8,105.9 146.3,103.3 134.6,110 123,103.3 121.5,105.9 134.6,113.5 "/>
<path id="XMLID_48_" class="st0" d="M204.8,83.9l-69.9,40.4h-0.4L64.5,83.9l-36.1,20.8v41.9L66,168.4l0-40.1l31.6,18.2v7.9
	l-17.5-10.8v15.3l17.5,12.7v81.6l-7.7,10.3l9.1,12l9-12l-7.3-9.7v-66.4l14.4,10.7v21.2l19.2,14.3l19.2-14.6v-21l15.2-11.5v67.3
	l-7.3,9.8l9.1,12l9-12l-7.7-10.3v-82.7l16.7-12.6v-16l-16.7,10.6v-6.1l31.6-18.2l0,40.1l37.6-21.7v-41.9L204.8,83.9z M31.4,108.4
	l30.3,17.4l-30.3,17.4V108.4z M63,163.2l-30-17.3l30-17.3L63,163.2z M63,123.1l-30.3-17.4L63,88.3V123.1z M66,88.3l30.3,17.5
	L66,123.4V88.3z M67.8,125.9l29.9-17.4V143L67.8,125.9z M83.2,157.3v-8.4l14.5,9v10L83.2,157.3z M104.2,263.5l-5.3,7l-5.3-7l5.3-7
	L104.2,263.5z M168.6,108.3v35.1l-30.4-17.6L168.6,108.3z M100.6,108.3l30.4,17.6l-30.4,17.6V108.3z M115.1,194.4l-14.4-10.7v-9.9
	l14.4,10.5V194.4z M118.1,217.8v-11.1l15.8,11.7l-7.5,5.6L118.1,217.8z M134.3,229.9l-5.4-4l5.5-4.1l5.3,4L134.3,229.9z
	 M150.5,217.5l-8.3,6.3l-7.2-5.5l15.5-11.8V217.5z M150.5,182.7v20.1l-16.1,12.3l-16.3-12.1v-20.2l-17.4-12.7v-23.2l33.8-19.5h0.4
	l33.8,19.5V169L150.5,182.7z M153.5,194.2v-10l15.2-11.5v9.9L153.5,194.2z M175.6,263.5l-5.3,7l-5.3-7l5.3-7L175.6,263.5z
	 M185.3,147.4v9l-13.7,10.3v-10.6L185.3,147.4z M171.6,143v-34.6l29.9,17.4L171.6,143z M203.3,123.4L173,105.8l30.3-17.5V123.4z
	 M206.3,88.3l30.3,17.5l-30.3,17.4V88.3z M206.3,163.2l0-34.6l30,17.3L206.3,163.2z M237.9,143.3l-30.3-17.4l30.3-17.4V143.3z"/>
<path id="XMLID_40_" class="st0" d="M134.6,133.7l-12,9.1l10.5,7.9V180h3v-29.4l10.5-7.9L134.6,133.7z M134.7,137.4l7,5.3l-7,5.3
	l-7-5.3L134.7,137.4z"/>
</svg>
