<?xml version="1.0" encoding="utf-8"?>
<!-- Generator: Adobe Illustrator 19.0.0, SVG Export Plug-In . SVG Version: 6.00 Build 0)  -->
<svg version="1.1" baseProfile="basic" id="Слой_1"
	 xmlns="http://www.w3.org/2000/svg" xmlns:xlink="http://www.w3.org/1999/xlink" x="0px" y="0px" viewBox="0 0 269.3 382.7"
	 xml:space="preserve">
<style type="text/css">
	.st0{fill:#FFFFFF;}
</style>
<path id="XMLID_80_" class="st0" d="M128.9,146.5l7.7,20.8l22.2-1.6l-7.7-20.9L128.9,146.5z M133.1,149.2l15.9-1.2l5.5,15l-16,1.1
	L133.1,149.2z"/>
<polygon id="XMLID_79_" class="st0" points="164.7,123.8 146.8,125.1 146.6,122.1 166.8,120.6 173.8,139.6 171,140.6 "/>
<rect id="XMLID_78_" x="45.5" y="122.4" transform="matrix(-0.9381 0.3463 -0.3463 -0.9381 136.8091 239.4856)" class="st0" width="3" height="19.1"/>
<rect id="XMLID_77_" x="195.4" y="232.8" transform="matrix(-0.9974 7.257088e-002 -7.257088e-002 -0.9974 426.3896 453.0941)" class="st0" width="19.1" height="3"/>
<path id="XMLID_73_" class="st0" d="M65.3,263.1l1.1,9.4L58,285.5l2.5,1.6l7.9-12.2l10-4.2l-1.5-12.5L65.3,263.1z M75.1,268.8
	l-5.8,2.5l-0.1,0l-0.7-6.2l5.8-2.5L75.1,268.8z"/>
<path id="XMLID_65_" class="st0" d="M219.8,234.4l12.6-0.9l-4.4-11.8l-9.2,0.7l-42.1-114.1l11.6-18l12.8,34.1L197.5,76l7.2-11.1
	l9.4-3.5l-0.9-12.6l-11.8,4.4l0.7,10.1l-7,10.9L149.2,91l36.6-2.5l-11.5,17.7l-121.5,8.8l-3.3-9L37,107l4.3,11.8l9.4-0.7l9.9,27
	l23-1.7l-3.4-9.3l26.5-1.9l9.7,26.2l-19.6,30.3l4.1,11.2l25.7-39.6l-7.1-19.5l35.6-2.6l12.5,33.9l-20.5,1.5l-25.6,39.5l12-0.9
	l19.6-30.2l27.8-2l9.2,25l-10,0.7l7.9,21.5l28.6-2L219.8,234.4z M49.7,115.2l-6.3,0.4l-2.2-5.9l6.3-0.5L49.7,115.2z M211,59.3
	l-5.9,2.2l-0.5-6.3l6-2.2L211,59.3z M189.5,85.3l-19.7,1.3l24.7-9.1l1.9,26.4L189.5,85.3z M187.5,88.4L187.5,88.4L187.5,88.4
	L187.5,88.4z M215.5,222.4l-25.6,1.8l-5.8-15.6l10-0.7L182.7,177l-31.5,2.3l-19.6,30.2l-4.5,0.3l21.5-33.2l23-1.7L157,135.1l-41.9,3
	l8,21.8l-21.6,33.3l-1.5-4.2l19.6-30.3l-11-29.7l-32.8,2.4l3.4,9.3L62.6,142l-8.8-24l120-8.7L215.5,222.4z M221.8,231.2l-2.2-5.9
	l6.3-0.5l2.2,6L221.8,231.2z"/>
<path id="XMLID_59_" class="st0" d="M70.4,250.4l12.9-0.9l4.5,12.2l13-0.9l-3.4-9.3l9.9-0.7l-8.3-22.6l10.8-16.7l5.1,13.9l56.9-4
	l-0.2-3l-54.6,3.9l-5.1-13.9l21.5-33.2l-2.5-1.6l-21.4,33.1l-14.9,1.1l-18.8-51.3l-2.8,1l19.6,53.4l14.9-1.1l-10.8,16.7l-24.1,1.8
	l3.4,9.2l-9.8,0.7L70.4,250.4z M94.4,229.7l-4.4,6.8l-11.1,0.8l-2.3-6.3L94.4,229.7z M96.3,248.6l-3.8-10.4l4.4-6.8l6.2,16.7
	L96.3,248.6z M86,248.1l4.4-6.8l3.8,10.4h0l2.3,6.3l-6.8,0.5L86,248.1z M72.4,247.3l-2.3-6.3l17.8-1.3l-4.4,6.8L72.4,247.3z"/>
<polygon id="XMLID_58_" class="st0" points="162.6,185.6 177.5,184.5 182.7,198.5 179.9,199.6 175.5,187.6 162.8,188.6 "/>
<polygon id="XMLID_57_" class="st0" points="102.9,136.2 108.1,150.2 105.3,151.3 100.9,139.3 88.2,140.2 88,137.2 "/>
<path id="XMLID_56_" class="st0" d="M43.2,346.8c2.2,0,4.1-0.8,5.6-2.3c1.6-1.5,2.3-3.4,2.3-5.5c0-1.6-0.5-3.1-1.4-4.5
	c-0.9-1.3-2.1-2.3-3.7-2.8c-0.9-0.4-1.9-0.5-2.8-0.5c-0.6,0-1.2-0.2-1.6-0.7c-0.4-0.4-0.7-1-0.7-1.6c0-0.6,0.2-1.2,0.7-1.6
	c0.4-0.4,1-0.7,1.6-0.7c0.6,0,1.2,0.2,1.6,0.7c0.4,0.4,0.6,0.9,0.6,1.3l2.7,0c-1-2.8-2.7-4.2-5-4.2c-1.3,0-2.3,0.4-3.2,1.3
	c-0.9,0.9-1.3,2-1.3,3.2c0,1.2,0.4,2.3,1.3,3.2c0,0,0.1,0.1,0.2,0.2c0.8,0.7,1.8,1.1,3,1.1c1.6,0,2.9,0.6,4,1.7
	c1.1,1.1,1.7,2.4,1.7,4c0,1.5-0.6,2.8-1.7,3.9c-1.1,1.1-2.5,1.7-4,1.7c-1.5,0-2.9-0.5-4-1.6c-1.1-1.1-1.7-2.5-1.7-4.2h-2.2
	c0,2.4,0.8,4.3,2.4,5.8C39.2,346,41,346.8,43.2,346.8z"/>
<polygon id="XMLID_55_" class="st0" points="64.2,324.2 62.8,326.9 62.8,326.9 52.5,346.4 55.3,346.4 64.2,329.5 73.2,346.4 
	75.9,346.4 65.5,326.8 "/>
<path id="XMLID_54_" class="st0" d="M87.7,326.6c2,0,3.8,0.6,5.3,1.8c1.5,1.2,2.6,2.7,3.3,4.8h2.5c-0.7-2.8-2.1-4.9-4.1-6.5
	c-2-1.6-4.4-2.4-7-2.4c-3.1,0-5.8,1.1-8,3.3c-2.2,2.2-3.3,4.9-3.3,8s1.1,5.8,3.3,8c2.2,2.2,4.9,3.3,8,3.3c2.5,0,4.7-0.8,6.7-2.3
	c2-1.5,3.4-3.5,4.2-6.2h-15v2.3H95c-0.6,0.9-1.5,1.8-2.8,2.5c-1.4,0.8-2.8,1.2-4.4,1.2c-2.5,0-4.5-0.9-6.3-2.6
	c-1.7-1.7-2.6-3.8-2.6-6.3s0.9-4.5,2.6-6.3C83.2,327.5,85.3,326.6,87.7,326.6z"/>
<rect id="XMLID_53_" x="103.1" y="324.7" class="st0" width="2.3" height="21.7"/>
<polygon id="XMLID_52_" class="st0" points="109.7,327 116.8,327 116.8,346.4 119.1,346.4 119.1,327 126.3,327 126.3,324.7 
	109.7,324.7 "/>
<polygon id="XMLID_51_" class="st0" points="147.2,324.7 130.6,324.7 130.6,327 137.8,327 137.8,346.4 140,346.4 140,327 147.2,327 
	"/>
<polygon id="XMLID_50_" class="st0" points="155.2,324.2 153.8,326.9 153.8,326.9 143.6,346.4 146.3,346.4 155.2,329.5 164.2,346.4 
	166.9,346.4 156.6,326.8 "/>
<path id="XMLID_49_" class="st0" d="M184.8,332.7c0-3.3-1.4-5.6-4.1-6.9c-1.4-0.7-2.8-1-4.1-1h-5.5h-1.5v21.7h2.3V327h4.8
	c1.1,0,2.1,0.2,3.1,0.7c1.9,0.9,2.9,2.6,2.9,5c0,2.4-1,4-2.9,5c-1,0.5-2.1,0.7-3.1,0.7h-3.9l2.2,2.2l6.1,5.9h3.3l-6.1-5.9
	c1.2-0.1,2.5-0.7,3.7-1.5C183.8,337.5,184.8,335.4,184.8,332.7z"/>
<rect id="XMLID_48_" x="189.2" y="324.7" class="st0" width="2.3" height="21.7"/>
<path id="XMLID_47_" class="st0" d="M213.6,335.3c0,2.4-0.8,4.5-2.3,6.2c-1.5,1.7-3.3,2.5-5.4,2.5s-3.9-0.8-5.4-2.5
	c-1.5-1.7-2.3-3.8-2.3-6.2v-10.7h-2.2v10.7c0,3.1,1,5.7,2.9,7.9c1.9,2.2,4.3,3.3,7,3.3c2.7,0,5.1-1.1,7-3.3c1.9-2.2,2.9-4.8,2.9-7.9
	v-10.7h-2.2V335.3z"/>
<path id="XMLID_46_" class="st0" d="M228.9,331.6c-0.9-0.4-1.9-0.5-2.8-0.5c-0.6,0-1.2-0.2-1.6-0.7c-0.4-0.4-0.7-1-0.7-1.6
	c0-0.6,0.2-1.2,0.7-1.6c0.4-0.4,1-0.7,1.6-0.7c0.6,0,1.2,0.2,1.6,0.7c0.4,0.4,0.6,0.9,0.6,1.3l2.7,0c-1-2.8-2.7-4.2-5-4.2
	c-1.3,0-2.3,0.4-3.2,1.3c-0.9,0.9-1.3,2-1.3,3.2c0,1.2,0.4,2.3,1.3,3.2c0,0,0.1,0.1,0.2,0.2c0.8,0.7,1.8,1.1,3,1.1
	c1.6,0,2.9,0.6,4,1.7c1.1,1.1,1.7,2.4,1.7,4c0,1.5-0.6,2.8-1.7,3.9c-1.1,1.1-2.5,1.7-4,1.7c-1.5,0-2.9-0.5-4-1.6
	c-1.1-1.1-1.7-2.5-1.7-4.2h-2.2c0,2.4,0.8,4.3,2.4,5.8c1.5,1.5,3.4,2.3,5.6,2.3c2.2,0,4.1-0.8,5.6-2.3c1.6-1.5,2.3-3.4,2.3-5.5
	c0-1.6-0.5-3.1-1.4-4.5C231.7,333.1,230.4,332.2,228.9,331.6z"/>
</svg>
