<?xml version="1.0" encoding="utf-8"?>
<!-- Generator: Adobe Illustrator 19.0.0, SVG Export Plug-In . SVG Version: 6.00 Build 0)  -->
<svg version="1.1" baseProfile="basic" id="Слой_1"
	 xmlns="http://www.w3.org/2000/svg" xmlns:xlink="http://www.w3.org/1999/xlink" x="0px" y="0px" viewBox="0 0 269.3 382.7"
	 xml:space="preserve">
<style type="text/css">
	.st0{fill:#FFFFFF;}
</style>
<polygon id="XMLID_294_" class="st0" points="106.1,323.6 103.8,323.6 103.8,345.4 120.6,345.4 120.6,343.1 106.1,343.1 "/>
<rect id="XMLID_293_" x="128" y="337.1" class="st0" width="12.7" height="2.3"/>
<polygon id="XMLID_292_" class="st0" points="123.9,345.4 140.7,345.4 140.7,343.1 126.3,343.1 126.3,325.9 140.7,325.9 
	140.7,323.6 123.9,323.6 "/>
<path id="XMLID_289_" class="st0" d="M154.3,323.3c-3.1,0-5.7,1.1-7.9,3.3c-2.2,2.2-3.3,4.8-3.3,7.9c0,3.1,1.1,5.7,3.3,7.9
	c2.2,2.2,4.8,3.3,7.9,3.3s5.7-1.1,7.9-3.3c2.2-2.2,3.3-4.8,3.3-7.9c0-3.1-1.1-5.7-3.3-7.9C160,324.4,157.4,323.3,154.3,323.3z
	 M160.6,340.7c-1.7,1.7-3.8,2.6-6.3,2.6s-4.6-0.9-6.3-2.6c-1.7-1.7-2.6-3.8-2.6-6.3c0-2.5,0.9-4.6,2.6-6.3c1.7-1.7,3.8-2.6,6.3-2.6
	s4.6,0.9,6.3,2.6c1.7,1.7,2.6,3.8,2.6,6.3C163.2,336.9,162.3,339,160.6,340.7z"/>
<g id="XMLID_4_">
	<path id="XMLID_7_" class="st0" d="M175.2,131.2l12.9-9.7l-12.9-9.7l-12.8,9.7L175.2,131.2z M175.2,115.6l7.9,5.9l-7.9,5.9
		l-7.9-5.9L175.2,115.6z"/>
	<path id="XMLID_16_" class="st0" d="M94.1,111.9l-12.8,9.7l12.9,9.7l12.9-9.7L94.1,111.9z M94.1,127.5l-7.9-5.9l7.9-5.9l7.9,5.9
		L94.1,127.5z"/>
	<path id="XMLID_19_" class="st0" d="M175.4,102.2V76.7l-11.1-8.2l-10.1,7.3l-19.6-14.6l-19.2,14.6l-10.1-7.3l-11.1,8.2l0,25.2
		l-36.5,26.9L58,198l41.5,31.6l35.2,46.5l34.1-45.3l0.2,0.1l1.3-1.7l41.1-31.3v-68.1L175.4,102.2z M155.5,78.6l8.8-6.3l8.1,6v11.1
		l-8.1-6l-8.8,6.4V78.6z M155.5,93.4l8.8-6.3l8.1,6v8.8l-16.9,12.8V93.4z M134.7,64.9l17.9,13.3v11.1L134.6,76l-17.9,13.6l0-11.1
		L134.7,64.9z M152.4,200.4l-9.3,7l-6.8-5.1l10.6-8.1l0-18.1l18.7-14.1v-19.7l-18.7,14.1l0-7.2l-3,0l0,41.8h-18.9v-41.8h-3v7
		l-18.7-13.8v19.7l18.7,13.8V194l10.9,8.1l-7.1,5.3l-9.2-6.9v-17.1L97.2,169v-28.2l23.2-17.3l14.2,10.8l14.5-11l22.5,17.2v28.3
		l-19.4,14.8L152.4,200.4z M134.8,199.7l-7.7-5.7h15.2L134.8,199.7z M147,160.2l15.7-11.9v12.2L147,172.3L147,160.2z M122,160v12.2
		l-15.7-11.6v-12.2L122,160z M116.8,117l0-23.6l16.4-12.5v48.5L116.8,117z M134.5,130.5h0.3l-0.2,0.1L134.5,130.5z M136.1,129.5
		V80.9l16.4,12.2V117L136.1,129.5z M113.8,114.7l-16.4-12.5l0-9.1l8.1-6l8.4,6L113.8,114.7z M105.4,72.2l8.4,6l0,11.2l-8.4-6l-8,6
		l0-11.1L105.4,72.2z M60.9,130.4l34.8-25.7l22.3,17L61,164L60.9,130.4z M61,167.8l33.3-24.7v26L61,193.8L61,167.8z M61.7,197
		l34-25.4l16.7,12.4l-33.9,25.8L61.7,197z M81,211.7l32.7-24.8v15.2l9.7,7.2l-23,17.2L81,211.7z M133.1,269l-30.6-40.5l23.3-17.4
		l7.3,5.4V269z M134.6,213.9l-6.2-4.6l6.2-4.6l6.1,4.6L134.6,213.9z M136.1,269.2v-52.7l6.9-5.3l23.3,17.7L136.1,269.2z
		 M168.5,226.8l-22.9-17.4l9.8-7.5l-0.1-15.3l33,25.1L168.5,226.8z M190.8,209.8l-34-25.8l16.5-12.5l34.3,25.6L190.8,209.8z
		 M208.4,193.9l-33.7-25.1v-26l33.7,25.7V193.9z M208.4,164.8l-56.7-43.3l22-16.7l34.7,26.5V164.8z"/>
</g>
</svg>
